<svg width="3262" height="3659" viewBox="0 0 3262 3659" fill="none" xmlns="http://www.w3.org/2000/svg">
<path d="M2186 2111.72L2430.88 1888L2854.09 2351.23C2854.09 2351.23 2962.14 2469.5 2842.31 2578.97C2722.48 2688.45 2609.21 2574.95 2609.21 2574.95L2186 2111.72Z" fill="#1E4463"/>
<path d="M1155 1714C1155 1714 1187 1703.43 1224.5 1695C1262 1686.57 1293 1682.5 1293 1682.5L1293 2091H1155L1155 1714Z" fill="#1F4364"/>
<path d="M2004 1698.5C2004 1698.5 1973.03 1689.5 1935 1681.25C1896.97 1673 1866 1668.5 1866 1668.5V2082.5H2004V1698.5Z" fill="#1F4364"/>
<path d="M1647.67 1649.92C1649.58 1649.65 1651.42 1650.8 1652.02 1652.64L1674.48 1721.03C1675.64 1724.58 1671.73 1727.65 1668.56 1725.67L1574.82 1667.25C1571.64 1665.27 1572.67 1660.41 1576.38 1659.89L1647.67 1649.92Z" fill="#1F4364"/>
<path d="M1513.43 1391.79C1515.66 1391.21 1517.91 1392.61 1518.37 1394.86L1525.51 1429.98C1526.21 1433.42 1522.45 1436.02 1519.47 1434.17L1477.66 1408.11C1474.68 1406.25 1475.37 1401.73 1478.76 1400.85L1513.43 1391.79Z" fill="#1F4364"/>
<path d="M1738.63 1776.7C1736.71 1776.47 1735.23 1774.89 1735.12 1772.96L1731.01 1701.09C1730.8 1697.36 1735.36 1695.4 1737.92 1698.13L1813.48 1778.69C1816.04 1781.42 1813.79 1785.85 1810.08 1785.4L1738.63 1776.7Z" fill="#1F4364"/>
<path d="M1632.18 1805.16C1633.26 1806.66 1633.18 1808.7 1631.98 1810.1L1594.7 1853.66C1592.24 1856.55 1587.51 1854.69 1587.67 1850.9L1591.34 1760.89C1591.5 1757.1 1596.35 1755.63 1598.58 1758.71L1632.18 1805.16Z" fill="#1F4364"/>
<path d="M1659.35 1952.64C1656.63 1952.74 1654.61 1950.14 1655.37 1947.52L1667.06 1907.56C1667.98 1904.43 1672.06 1903.65 1674.06 1906.23L1703.98 1944.79C1705.99 1947.37 1704.22 1951.13 1700.96 1951.24L1659.35 1952.64Z" fill="#1F4364"/>
<path d="M1578.33 1980.83C1579.56 1978.71 1578.61 1976 1576.34 1975.1L1534.09 1958.45C1530.9 1957.19 1527.72 1960.25 1528.84 1963.48L1548.32 2019.43C1549.44 2022.66 1553.84 2023.08 1555.56 2020.12L1578.33 1980.83Z" fill="#1F4364"/>
<path d="M1481.39 1870.21C1483.96 1869.58 1485.22 1866.68 1483.94 1864.38L1449.83 1803.09C1448.22 1800.19 1444 1800.4 1442.67 1803.43L1408.64 1881.37C1407.32 1884.41 1410.04 1887.64 1413.26 1886.86L1481.39 1870.21Z" fill="#1F4364"/>
<path d="M1414.21 1712.04C1415.95 1710.87 1416.48 1708.54 1415.42 1706.73L1387.68 1658.92C1385.85 1655.77 1381.12 1656.49 1380.32 1660.03L1362.32 1738.89C1361.52 1742.43 1365.47 1745.13 1368.47 1743.09L1414.21 1712.04Z" fill="#1F4364"/>
<path d="M1545.35 1712.06C1547.45 1711.9 1549.31 1713.38 1549.62 1715.46L1557.74 1770.14C1558.27 1773.73 1554.12 1776.12 1551.28 1773.85L1488.05 1723.42C1485.21 1721.16 1486.62 1716.58 1490.24 1716.3L1545.35 1712.06Z" fill="#1F4364"/>
<path d="M922 1247L1007 1312.93V1593H922V1247Z" fill="#97C6AD"/>
<path d="M1081 1357L1166 1396.44V1564H1081V1357Z" fill="#97C6AD"/>
<path d="M763 1055L848 1166.28V1639H763V1055Z" fill="#97C6AD"/>
<path d="M2228 1235L2143 1300.93V1581H2228V1235Z" fill="#97C6AD"/>
<path d="M2069 1345L1984 1384.44V1552H2069V1345Z" fill="#97C6AD"/>
<path d="M2387 1009L2302 1131.71V1653H2387V1009Z" fill="#97C6AD"/>
<rect x="1232" y="1420" width="25" height="107" fill="#1E4463"/>
<rect x="1275" y="1420" width="25" height="107" fill="#1E4463"/>
<rect x="1864" y="1408" width="25" height="107" fill="#1E4463"/>
<rect x="1700" y="1436" width="25" height="74" fill="#1E4463"/>
<rect x="1405" y="1452" width="25" height="58" fill="#1E4463"/>
<rect x="1907" y="1408" width="25" height="107" fill="#1E4463"/>
<circle cx="1594.5" cy="1211.5" r="994.5" stroke="#1F4364" stroke-width="230"/>
<path d="M1155 1274H1282V1431L1155 1394.5V1274Z" fill="#729A8A"/>
<path d="M1816 1133H1689L1732 1446.5L1835 1434.5L1816 1133Z" fill="#729A8A"/>
<path d="M2114.92 916.704C2203.37 900.412 2185.64 761.484 2182.77 742.379C2182.59 741.188 2183.49 740.156 2184.69 740.101L2267.9 736.297C2269.02 736.246 2269.95 737.068 2269.99 738.181C2270.43 751.875 2272.86 833.223 2269.92 871.704C2265.66 927.485 2245.56 955.704 2226.92 980.204C2194.59 1022.7 2164.2 1042.45 2101.92 1053.7C2031.38 1066.46 1914.92 1022.7 1914.92 1022.7C1914.92 1022.7 1927.43 1053.22 1936.92 1068.7C1944.81 1081.56 1976.13 1105.81 1986.54 1113.67C1987.89 1114.69 1987.46 1116.8 1985.81 1117.18C1973.6 1120.01 1937.02 1127.87 1914.92 1126.2C1888.1 1124.18 1848.42 1108.2 1848.42 1108.2C1848.42 1108.2 1819.37 1140.3 1797.92 1157.7C1776.48 1175.1 1727.92 1202.7 1727.92 1202.7L1737 1446.5H1544.93C1542.16 1446.5 1539.93 1444.26 1539.93 1441.5L1539.92 1284.7C1539.92 1284.7 1409.41 1313.5 1324.93 1310.2C1261.32 1307.72 1163.93 1284.7 1163.93 1284.7V1388.5L1053 1340L975.925 1266.2L968.791 976.547C968.71 973.276 964.195 972.479 962.999 975.525L941.925 1029.2L919.385 1098.7C919.052 1099.73 917.59 1099.57 917.501 1098.5C916.166 1082.35 912.665 1028.03 922 989C933.081 942.663 948.425 927.204 975.925 863.204C1003.42 799.204 1043.07 742.744 1104.92 694.704C1166.78 646.665 1313.43 620.704 1313.43 620.704C1313.43 620.704 1351.35 507.9 1437.92 482.204C1524.5 456.508 1681.42 537.704 1681.42 537.704C1681.42 537.704 1823.03 525.476 1892.92 580.704C1945.79 622.473 1982.98 670.513 1997.92 736.204C2016.92 819.704 2019.92 934.204 2114.92 916.704Z" fill="#97C6AD"/>
<ellipse cx="1853.5" cy="833" rx="37.5" ry="45" fill="#1A4263"/>
<path d="M1660.27 594.998C1660.27 594.998 1513 512 1451.5 538.5C1390 565 1356 655.5 1325 749.5C1294 843.5 1523.77 1034.5 1558.77 1045.5C1593.77 1056.5 1638.27 995.998 1638.27 995.998" stroke="#729A8A" stroke-width="30" stroke-linecap="round"/>
<path d="M772 1034C772 1034 839.5 1184.5 1003.5 1307C1167.5 1429.5 1431 1464.5 1431 1464.5" stroke="#1E4463" stroke-width="30" stroke-linecap="round"/>
<path d="M2383.5 1017C2383.5 1017 2299 1176.5 2135 1299C1971 1421.5 1716 1452 1716 1452" stroke="#1E4463" stroke-width="30" stroke-linecap="round"/>
<path d="M725 1687C725 1687 892.5 1592.36 1109.5 1539.86C1326.5 1487.36 1495 1497.86 1495 1497.86L1487.5 1507.5L1413 1563.5L1407.12 1542.12C1406.73 1540.69 1405.72 1539.5 1404.36 1538.89L1389.37 1532.12C1388.51 1531.73 1387.51 1531.77 1386.68 1532.23L1342.16 1556.88C1339.45 1558.38 1340.52 1562.5 1343.61 1562.5H1410.55C1412.09 1562.5 1413.55 1561.78 1414.5 1560.56L1437 1531.5L1522 1571.36L1515.5 1632.86L1437 1638.86L1413 1580.36L1375.5 1646.36C1375.5 1646.36 1211.81 1673.51 1116.5 1704.36C1021.19 1735.2 814 1832.5 814 1832.5L725 1687Z" fill="#1F4164"/>
<path d="M2458 1679.18C2458 1679.18 2290.5 1584.53 2073.5 1532.03C1856.5 1479.53 1720.5 1496.68 1720.5 1496.68L1700 1502.5L1688 1554.68L1755.62 1528.02C1756.2 1527.79 1756.82 1527.68 1757.45 1527.68H1799.74C1800.55 1527.68 1801.32 1528 1801.88 1528.58L1817.13 1544.16C1819.2 1546.27 1817.28 1549.79 1814.38 1549.2L1740.5 1533.98L1721.5 1604.5L1695.5 1582.68L1706.19 1547.5L1740.5 1533.98L1721.5 1604.5L1700 1502.5L1665 1551.18L1613 1588.68L1633.5 1621.18L1667.5 1625.03L1746 1631.03L1776.5 1634.18L1807.5 1638.53C1807.5 1638.53 1969 1661 2066.5 1696.53C2164 1732.07 2365 1819 2365 1819L2458 1679.18Z" fill="#1F4164"/>
<path d="M1625.64 1533.12C1625.54 1535.01 1623.12 1535.72 1622.02 1534.18L1598.38 1501C1597.58 1499.88 1598.13 1498.31 1599.45 1497.92L1625.22 1490.42C1626.54 1490.03 1627.85 1491.07 1627.78 1492.44L1625.64 1533.12Z" fill="#1F4364"/>
<path d="M1550.47 1547.05C1551.13 1548.49 1549.93 1550.08 1548.37 1549.85L1531.6 1547.43C1530.1 1547.21 1529.37 1545.46 1530.29 1544.25L1540.06 1531.24C1540.97 1530.03 1542.85 1530.23 1543.48 1531.62L1550.47 1547.05Z" fill="#1F4364"/>
<path d="M713.17 2706.95V2970H654.454V2706.95H713.17ZM793.204 2706.95V2752.66H576.046V2706.95H793.204ZM863.663 2820.05V2970H807.296V2774.52H860.23L863.663 2820.05ZM922.018 2773.08L921.114 2825.65C918.705 2825.29 915.574 2824.99 911.72 2824.75C907.866 2824.38 904.553 2824.2 901.783 2824.2C894.557 2824.2 888.294 2825.11 882.994 2826.91C877.815 2828.6 873.479 2831.13 869.986 2834.5C866.614 2837.87 864.085 2842.09 862.398 2847.15C860.712 2852.09 859.869 2857.81 859.869 2864.31L849.21 2859.07C849.21 2846.18 850.475 2834.38 853.004 2823.66C855.533 2812.94 859.207 2803.67 864.024 2795.84C868.842 2787.89 874.744 2781.75 881.729 2777.41C888.715 2773.08 896.664 2770.91 905.577 2770.91C908.468 2770.91 911.419 2771.09 914.43 2771.45C917.441 2771.81 919.97 2772.35 922.018 2773.08ZM1059.86 2922.85V2774.52H1116.59V2970H1063.48L1059.86 2922.85ZM1065.83 2882.92L1081.36 2882.56C1081.36 2895.69 1079.8 2907.79 1076.67 2918.87C1073.65 2929.95 1069.08 2939.59 1062.94 2947.78C1056.91 2955.97 1049.39 2962.35 1040.35 2966.93C1031.44 2971.39 1021.02 2973.61 1009.1 2973.61C999.462 2973.61 990.61 2972.29 982.54 2969.64C974.591 2966.87 967.726 2962.59 961.944 2956.81C956.163 2950.91 951.707 2943.38 948.575 2934.23C945.444 2924.95 943.878 2913.87 943.878 2900.99V2774.52H1000.25V2901.35C1000.25 2906.41 1000.85 2910.74 1002.05 2914.36C1003.38 2917.85 1005.12 2920.74 1007.29 2923.03C1009.58 2925.32 1012.35 2927 1015.6 2928.09C1018.97 2929.17 1022.65 2929.71 1026.62 2929.71C1036.62 2929.71 1044.45 2927.66 1050.11 2923.57C1055.89 2919.35 1059.92 2913.75 1062.21 2906.77C1064.62 2899.66 1065.83 2891.71 1065.83 2882.92ZM1208.55 2816.25V2970H1152V2774.52H1205.12L1208.55 2816.25ZM1201.14 2865.4L1187.05 2865.76C1187.05 2851.06 1188.86 2837.87 1192.47 2826.19C1196.08 2814.51 1201.2 2804.57 1207.83 2796.38C1214.57 2788.07 1222.58 2781.75 1231.86 2777.41C1241.25 2773.08 1251.61 2770.91 1262.93 2770.91C1272.08 2770.91 1280.46 2772.23 1288.04 2774.88C1295.63 2777.53 1302.13 2781.81 1307.55 2787.71C1313.1 2793.49 1317.31 2801.2 1320.2 2810.83C1323.09 2820.35 1324.54 2832.09 1324.54 2846.06V2970H1267.81V2845.88C1267.81 2837.69 1266.66 2831.37 1264.38 2826.91C1262.09 2822.46 1258.72 2819.33 1254.26 2817.52C1249.92 2815.71 1244.62 2814.81 1238.36 2814.81C1231.74 2814.81 1226.08 2816.13 1221.38 2818.78C1216.68 2821.31 1212.83 2824.87 1209.82 2829.44C1206.8 2834.02 1204.58 2839.38 1203.13 2845.52C1201.81 2851.67 1201.14 2858.29 1201.14 2865.4ZM1418.12 2692.32V2970H1361.57V2692.32H1418.12ZM1542.24 2774.52L1457.14 2872.8L1412.16 2917.97L1389.58 2879.85L1426.07 2832.7L1474.31 2774.52H1542.24ZM1482.62 2970L1427.52 2880.21L1467.98 2848.59L1547.3 2970H1482.62ZM1828.23 2924.47V2970H1695.44V2924.47H1828.23ZM1715.49 2706.95V2970H1656.6V2706.95H1715.49ZM1846.11 2874.25V2870.45C1846.11 2856.12 1848.16 2842.93 1852.26 2830.89C1856.35 2818.72 1862.37 2808.19 1870.32 2799.27C1878.27 2790.36 1888.03 2783.43 1899.59 2778.5C1911.15 2773.44 1924.4 2770.91 1939.34 2770.91C1954.51 2770.91 1967.88 2773.44 1979.44 2778.5C1991.13 2783.43 2000.94 2790.36 2008.89 2799.27C2016.84 2808.19 2022.86 2818.72 2026.96 2830.89C2031.05 2842.93 2033.1 2856.12 2033.1 2870.45V2874.25C2033.1 2888.46 2031.05 2901.65 2026.96 2913.81C2022.86 2925.86 2016.84 2936.4 2008.89 2945.43C2000.94 2954.34 1991.19 2961.27 1979.62 2966.21C1968.06 2971.14 1954.75 2973.61 1939.7 2973.61C1924.76 2973.61 1911.45 2971.14 1899.77 2966.21C1888.09 2961.27 1878.27 2954.34 1870.32 2945.43C1862.37 2936.4 1856.35 2925.86 1852.26 2913.81C1848.16 2901.65 1846.11 2888.46 1846.11 2874.25ZM1902.66 2870.45V2874.25C1902.66 2881.96 1903.26 2889.18 1904.47 2895.93C1905.79 2902.67 1907.9 2908.57 1910.79 2913.63C1913.68 2918.69 1917.48 2922.67 1922.17 2925.56C1926.99 2928.33 1932.83 2929.71 1939.7 2929.71C1946.56 2929.71 1952.34 2928.33 1957.04 2925.56C1961.74 2922.67 1965.53 2918.69 1968.42 2913.63C1971.31 2908.57 1973.36 2902.67 1974.57 2895.93C1975.89 2889.18 1976.55 2881.96 1976.55 2874.25V2870.45C1976.55 2862.87 1975.89 2855.76 1974.57 2849.14C1973.36 2842.39 1971.31 2836.43 1968.42 2831.25C1965.53 2826.07 1961.68 2822.04 1956.86 2819.15C1952.16 2816.25 1946.32 2814.81 1939.34 2814.81C1932.59 2814.81 1926.87 2816.25 1922.17 2819.15C1917.48 2822.04 1913.68 2826.07 1910.79 2831.25C1907.9 2836.43 1905.79 2842.39 1904.47 2849.14C1903.26 2855.76 1902.66 2862.87 1902.66 2870.45ZM2166.25 2923.39V2839.56C2166.25 2833.66 2165.35 2828.6 2163.54 2824.38C2161.73 2820.17 2158.9 2816.86 2155.05 2814.45C2151.2 2812.04 2146.2 2810.83 2140.05 2810.83C2134.88 2810.83 2130.36 2811.74 2126.5 2813.54C2122.77 2815.35 2119.88 2817.94 2117.83 2821.31C2115.91 2824.69 2114.94 2828.84 2114.94 2833.78H2058.58C2058.58 2824.99 2060.56 2816.8 2064.54 2809.21C2068.51 2801.62 2074.17 2794.94 2081.52 2789.16C2088.99 2783.37 2097.9 2778.92 2108.26 2775.79C2118.62 2772.53 2130.24 2770.91 2143.13 2770.91C2158.42 2770.91 2172.03 2773.5 2183.96 2778.68C2196 2783.74 2205.52 2791.38 2212.5 2801.62C2219.49 2811.74 2222.98 2824.51 2222.98 2839.92V2921.76C2222.98 2933.57 2223.64 2942.84 2224.97 2949.58C2226.41 2956.21 2228.46 2961.99 2231.11 2966.93V2970H2174.2C2171.55 2964.34 2169.56 2957.35 2168.24 2949.04C2166.91 2940.61 2166.25 2932.06 2166.25 2923.39ZM2173.3 2850.76L2173.66 2881.84H2145.66C2139.39 2881.84 2133.97 2882.62 2129.4 2884.18C2124.94 2885.75 2121.33 2887.92 2118.56 2890.69C2115.79 2893.34 2113.74 2896.47 2112.41 2900.08C2111.21 2903.58 2110.61 2907.43 2110.61 2911.65C2110.61 2915.62 2111.57 2919.23 2113.5 2922.49C2115.42 2925.62 2118.07 2928.09 2121.45 2929.89C2124.82 2931.7 2128.73 2932.6 2133.19 2932.6C2140.54 2932.6 2146.8 2931.16 2151.98 2928.27C2157.28 2925.38 2161.37 2921.88 2164.26 2917.79C2167.15 2913.57 2168.6 2909.66 2168.6 2906.04L2182.15 2929.53C2179.98 2934.35 2177.33 2939.35 2174.2 2944.53C2171.07 2949.58 2167.09 2954.34 2162.28 2958.8C2157.46 2963.13 2151.62 2966.69 2144.75 2969.46C2138.01 2972.23 2129.88 2973.61 2120.36 2973.61C2108.08 2973.61 2096.94 2971.14 2086.94 2966.21C2076.94 2961.15 2068.93 2954.22 2062.91 2945.43C2057.01 2936.64 2054.06 2926.52 2054.06 2915.08C2054.06 2904.84 2055.93 2895.75 2059.66 2887.8C2063.39 2879.85 2068.99 2873.1 2076.46 2867.56C2084.05 2862.02 2093.56 2857.87 2105.01 2855.1C2116.45 2852.21 2129.82 2850.76 2145.11 2850.76H2173.3ZM2373.83 2926.28V2692.5H2430.56V2970H2379.62L2373.83 2926.28ZM2252.07 2874.61V2870.82C2252.07 2856 2253.69 2842.51 2256.94 2830.35C2260.32 2818.06 2265.19 2807.52 2271.58 2798.73C2278.08 2789.82 2286.09 2782.95 2295.61 2778.13C2305.12 2773.32 2316.02 2770.91 2328.31 2770.91C2339.63 2770.91 2349.5 2773.44 2357.94 2778.5C2366.37 2783.43 2373.53 2790.42 2379.43 2799.45C2385.46 2808.37 2390.33 2818.9 2394.07 2831.07C2397.8 2843.11 2400.63 2856.18 2402.56 2870.27V2876.78C2400.75 2890.27 2397.92 2902.85 2394.07 2914.54C2390.33 2926.22 2385.46 2936.52 2379.43 2945.43C2373.53 2954.22 2366.31 2961.15 2357.75 2966.21C2349.32 2971.14 2339.39 2973.61 2327.95 2973.61C2315.66 2973.61 2304.76 2971.14 2295.25 2966.21C2285.85 2961.27 2277.96 2954.34 2271.58 2945.43C2265.19 2936.52 2260.32 2926.04 2256.94 2913.99C2253.69 2901.95 2252.07 2888.82 2252.07 2874.61ZM2308.43 2870.82V2874.61C2308.43 2882.32 2308.98 2889.48 2310.06 2896.11C2311.26 2902.73 2313.19 2908.57 2315.84 2913.63C2318.49 2918.69 2321.98 2922.67 2326.32 2925.56C2330.66 2928.33 2335.95 2929.71 2342.22 2929.71C2350.65 2929.71 2357.57 2927.78 2362.99 2923.93C2368.41 2919.96 2372.51 2914.48 2375.28 2907.49C2378.05 2900.5 2379.49 2892.37 2379.62 2883.1V2864.13C2379.62 2856.42 2378.83 2849.5 2377.27 2843.35C2375.7 2837.21 2373.35 2832.03 2370.22 2827.82C2367.21 2823.6 2363.42 2820.41 2358.84 2818.24C2354.26 2815.95 2348.84 2814.81 2342.58 2814.81C2336.44 2814.81 2331.2 2816.25 2326.86 2819.15C2322.53 2821.92 2318.97 2825.83 2316.2 2830.89C2313.55 2835.95 2311.57 2841.91 2310.24 2848.77C2309.04 2855.52 2308.43 2862.87 2308.43 2870.82Z" fill="#97C6AD"/>
<path d="M495.148 3227.03V3355H471.066V3227.03H495.148ZM534.875 3227.03V3246.1H431.779V3227.03H534.875ZM571.965 3220V3355H548.674V3220H571.965ZM568.273 3304.02H561.418C561.418 3297.4 562.297 3291.31 564.055 3285.74C565.812 3280.18 568.303 3275.34 571.525 3271.24C574.748 3267.08 578.586 3263.86 583.039 3261.57C587.551 3259.29 592.531 3258.14 597.98 3258.14C602.668 3258.14 606.916 3258.82 610.725 3260.17C614.592 3261.46 617.902 3263.54 620.656 3266.41C623.41 3269.28 625.52 3273.03 626.984 3277.66C628.508 3282.23 629.27 3287.79 629.27 3294.36V3355H605.891V3294.18C605.891 3289.79 605.246 3286.33 603.957 3283.81C602.668 3281.23 600.822 3279.38 598.42 3278.27C596.076 3277.16 593.176 3276.6 589.719 3276.6C585.969 3276.6 582.746 3277.33 580.051 3278.8C577.355 3280.21 575.129 3282.17 573.371 3284.69C571.672 3287.21 570.383 3290.11 569.504 3293.39C568.684 3296.67 568.273 3300.21 568.273 3304.02ZM692.463 3356.76C685.256 3356.76 678.781 3355.59 673.039 3353.24C667.297 3350.9 662.404 3347.65 658.361 3343.49C654.377 3339.27 651.301 3334.38 649.133 3328.81C647.023 3323.18 645.969 3317.15 645.969 3310.7V3307.19C645.969 3299.86 647.023 3293.21 649.133 3287.24C651.242 3281.2 654.23 3276.02 658.098 3271.68C661.965 3267.34 666.594 3264 671.984 3261.66C677.375 3259.32 683.322 3258.14 689.826 3258.14C696.564 3258.14 702.512 3259.29 707.668 3261.57C712.824 3263.8 717.131 3266.96 720.588 3271.06C724.045 3275.17 726.652 3280.09 728.41 3285.83C730.168 3291.51 731.047 3297.81 731.047 3304.73V3314.48H656.516V3298.49H708.195V3296.73C708.078 3293.04 707.375 3289.67 706.086 3286.62C704.797 3283.52 702.805 3281.05 700.109 3279.24C697.414 3277.36 693.928 3276.43 689.65 3276.43C686.193 3276.43 683.176 3277.19 680.598 3278.71C678.078 3280.18 675.969 3282.29 674.27 3285.04C672.629 3287.73 671.398 3290.96 670.578 3294.71C669.758 3298.46 669.348 3302.62 669.348 3307.19V3310.7C669.348 3314.69 669.875 3318.38 670.93 3321.78C672.043 3325.18 673.654 3328.13 675.764 3330.65C677.932 3333.12 680.51 3335.05 683.498 3336.46C686.545 3337.8 690.002 3338.48 693.869 3338.48C698.732 3338.48 703.127 3337.54 707.053 3335.66C711.037 3333.73 714.494 3330.89 717.424 3327.14L729.113 3339.27C727.121 3342.2 724.426 3345.01 721.027 3347.71C717.688 3350.4 713.645 3352.6 708.898 3354.3C704.152 3355.94 698.674 3356.76 692.463 3356.76ZM896.809 3287.76V3294.36C896.809 3304.02 895.52 3312.72 892.941 3320.46C890.363 3328.13 886.701 3334.67 881.955 3340.06C877.209 3345.45 871.555 3349.58 864.992 3352.45C858.43 3355.32 851.135 3356.76 843.107 3356.76C835.197 3356.76 827.932 3355.32 821.311 3352.45C814.748 3349.58 809.064 3345.45 804.26 3340.06C799.455 3334.67 795.734 3328.13 793.098 3320.46C790.461 3312.72 789.143 3304.02 789.143 3294.36V3287.76C789.143 3278.04 790.461 3269.34 793.098 3261.66C795.734 3253.98 799.426 3247.45 804.172 3242.06C808.918 3236.61 814.572 3232.45 821.135 3229.58C827.756 3226.71 835.021 3225.27 842.932 3225.27C850.959 3225.27 858.254 3226.71 864.816 3229.58C871.379 3232.45 877.033 3236.61 881.779 3242.06C886.584 3247.45 890.275 3253.98 892.854 3261.66C895.49 3269.34 896.809 3278.04 896.809 3287.76ZM872.375 3294.36V3287.59C872.375 3280.62 871.73 3274.49 870.441 3269.22C869.152 3263.89 867.248 3259.4 864.729 3255.77C862.209 3252.14 859.104 3249.41 855.412 3247.6C851.721 3245.72 847.561 3244.79 842.932 3244.79C838.244 3244.79 834.084 3245.72 830.451 3247.6C826.877 3249.41 823.83 3252.14 821.311 3255.77C818.791 3259.4 816.857 3263.89 815.51 3269.22C814.221 3274.49 813.576 3280.62 813.576 3287.59V3294.36C813.576 3301.27 814.221 3307.39 815.51 3312.72C816.857 3318.06 818.791 3322.57 821.311 3326.26C823.889 3329.89 826.994 3332.65 830.627 3334.52C834.26 3336.4 838.42 3337.33 843.107 3337.33C847.795 3337.33 851.955 3336.4 855.588 3334.52C859.221 3332.65 862.268 3329.89 864.729 3326.26C867.248 3322.57 869.152 3318.06 870.441 3312.72C871.73 3307.39 872.375 3301.27 872.375 3294.36ZM938.732 3278.18V3391.56H915.441V3259.9H936.975L938.732 3278.18ZM999.816 3306.48V3308.33C999.816 3315.24 998.996 3321.66 997.355 3327.58C995.773 3333.44 993.43 3338.56 990.324 3342.96C987.219 3347.29 983.352 3350.69 978.723 3353.15C974.152 3355.56 968.879 3356.76 962.902 3356.76C957.043 3356.76 951.945 3355.64 947.609 3353.42C943.273 3351.13 939.611 3347.91 936.623 3343.75C933.635 3339.59 931.232 3334.76 929.416 3329.25C927.658 3323.68 926.34 3317.62 925.461 3311.05V3305.17C926.34 3298.19 927.658 3291.87 929.416 3286.18C931.232 3280.44 933.635 3275.49 936.623 3271.33C939.611 3267.11 943.244 3263.86 947.521 3261.57C951.857 3259.29 956.926 3258.14 962.727 3258.14C968.762 3258.14 974.064 3259.29 978.635 3261.57C983.264 3263.86 987.16 3267.14 990.324 3271.42C993.488 3275.69 995.861 3280.79 997.443 3286.71C999.025 3292.63 999.816 3299.22 999.816 3306.48ZM976.525 3308.33V3306.48C976.525 3302.27 976.145 3298.37 975.383 3294.79C974.621 3291.16 973.449 3288 971.867 3285.3C970.285 3282.55 968.234 3280.41 965.715 3278.89C963.195 3277.36 960.148 3276.6 956.574 3276.6C953 3276.6 949.924 3277.19 947.346 3278.36C944.768 3279.53 942.658 3281.2 941.018 3283.37C939.377 3285.54 938.088 3288.12 937.15 3291.1C936.271 3294.03 935.686 3297.29 935.393 3300.86V3315.45C935.92 3319.79 936.945 3323.68 938.469 3327.14C939.992 3330.6 942.219 3333.35 945.148 3335.4C948.137 3337.45 952.004 3338.48 956.75 3338.48C960.324 3338.48 963.371 3337.69 965.891 3336.1C968.41 3334.52 970.461 3332.35 972.043 3329.6C973.625 3326.79 974.768 3323.56 975.471 3319.93C976.174 3316.3 976.525 3312.43 976.525 3308.33ZM1059.49 3356.76C1052.29 3356.76 1045.81 3355.59 1040.07 3353.24C1034.33 3350.9 1029.44 3347.65 1025.39 3343.49C1021.41 3339.27 1018.33 3334.38 1016.16 3328.81C1014.05 3323.18 1013 3317.15 1013 3310.7V3307.19C1013 3299.86 1014.05 3293.21 1016.16 3287.24C1018.27 3281.2 1021.26 3276.02 1025.13 3271.68C1029 3267.34 1033.62 3264 1039.02 3261.66C1044.41 3259.32 1050.35 3258.14 1056.86 3258.14C1063.6 3258.14 1069.54 3259.29 1074.7 3261.57C1079.86 3263.8 1084.16 3266.96 1087.62 3271.06C1091.08 3275.17 1093.68 3280.09 1095.44 3285.83C1097.2 3291.51 1098.08 3297.81 1098.08 3304.73V3314.48H1023.55V3298.49H1075.23V3296.73C1075.11 3293.04 1074.41 3289.67 1073.12 3286.62C1071.83 3283.52 1069.84 3281.05 1067.14 3279.24C1064.45 3277.36 1060.96 3276.43 1056.68 3276.43C1053.22 3276.43 1050.21 3277.19 1047.63 3278.71C1045.11 3280.18 1043 3282.29 1041.3 3285.04C1039.66 3287.73 1038.43 3290.96 1037.61 3294.71C1036.79 3298.46 1036.38 3302.62 1036.38 3307.19V3310.7C1036.38 3314.69 1036.91 3318.38 1037.96 3321.78C1039.07 3325.18 1040.69 3328.13 1042.79 3330.65C1044.96 3333.12 1047.54 3335.05 1050.53 3336.46C1053.58 3337.8 1057.03 3338.48 1060.9 3338.48C1065.76 3338.48 1070.16 3337.54 1074.08 3335.66C1078.07 3333.73 1081.53 3330.89 1084.46 3327.14L1096.14 3339.27C1094.15 3342.2 1091.46 3345.01 1088.06 3347.71C1084.72 3350.4 1080.68 3352.6 1075.93 3354.3C1071.18 3355.94 1065.71 3356.76 1059.49 3356.76ZM1136.4 3280.21V3355H1113.2V3259.9H1134.99L1136.4 3280.21ZM1132.71 3304.02H1125.85C1125.91 3297.11 1126.85 3290.84 1128.66 3285.21C1130.48 3279.59 1133.03 3274.76 1136.31 3270.71C1139.65 3266.67 1143.61 3263.56 1148.18 3261.4C1152.75 3259.23 1157.84 3258.14 1163.47 3258.14C1168.04 3258.14 1172.17 3258.79 1175.86 3260.08C1179.55 3261.37 1182.72 3263.42 1185.35 3266.23C1188.05 3269.04 1190.1 3272.73 1191.51 3277.3C1192.97 3281.82 1193.7 3287.38 1193.7 3294V3355H1170.32V3293.83C1170.32 3289.49 1169.68 3286.06 1168.39 3283.54C1167.16 3281.03 1165.34 3279.24 1162.94 3278.18C1160.6 3277.13 1157.7 3276.6 1154.24 3276.6C1150.67 3276.6 1147.53 3277.33 1144.84 3278.8C1142.2 3280.21 1139.97 3282.17 1138.16 3284.69C1136.4 3287.21 1135.05 3290.11 1134.11 3293.39C1133.18 3296.67 1132.71 3300.21 1132.71 3304.02ZM1282.91 3321.78C1282.91 3319.32 1282.53 3317.12 1281.77 3315.19C1281.07 3313.19 1279.75 3311.41 1277.81 3309.82C1275.94 3308.18 1273.27 3306.6 1269.82 3305.08C1266.42 3303.5 1262.02 3301.86 1256.63 3300.16C1250.66 3298.28 1245.09 3296.17 1239.93 3293.83C1234.78 3291.48 1230.24 3288.76 1226.31 3285.65C1222.44 3282.55 1219.43 3278.97 1217.26 3274.93C1215.09 3270.83 1214.01 3266.08 1214.01 3260.69C1214.01 3255.42 1215.12 3250.62 1217.35 3246.28C1219.63 3241.94 1222.85 3238.22 1227.01 3235.12C1231.17 3231.95 1236.07 3229.52 1241.69 3227.82C1247.38 3226.12 1253.64 3225.27 1260.5 3225.27C1269.99 3225.27 1278.2 3227 1285.11 3230.46C1292.08 3233.92 1297.47 3238.6 1301.28 3244.52C1305.09 3250.44 1306.99 3257.09 1306.99 3264.47H1282.91C1282.91 3260.49 1282.06 3256.97 1280.36 3253.93C1278.72 3250.88 1276.2 3248.48 1272.8 3246.72C1269.46 3244.96 1265.25 3244.08 1260.15 3244.08C1255.23 3244.08 1251.12 3244.81 1247.84 3246.28C1244.62 3247.74 1242.19 3249.74 1240.55 3252.26C1238.97 3254.78 1238.18 3257.59 1238.18 3260.69C1238.18 3263.04 1238.73 3265.15 1239.85 3267.02C1240.96 3268.84 1242.63 3270.57 1244.86 3272.21C1247.08 3273.79 1249.84 3275.28 1253.12 3276.69C1256.46 3278.04 1260.32 3279.38 1264.72 3280.73C1271.75 3282.84 1277.9 3285.19 1283.18 3287.76C1288.51 3290.34 1292.93 3293.27 1296.45 3296.55C1300.02 3299.83 1302.69 3303.53 1304.45 3307.63C1306.26 3311.73 1307.17 3316.39 1307.17 3321.6C1307.17 3327.11 1306.09 3332.03 1303.92 3336.37C1301.75 3340.7 1298.64 3344.39 1294.6 3347.44C1290.56 3350.49 1285.7 3352.8 1280.01 3354.38C1274.39 3355.97 1268.09 3356.76 1261.12 3356.76C1254.9 3356.76 1248.75 3355.94 1242.66 3354.3C1236.62 3352.6 1231.14 3350.08 1226.22 3346.74C1221.3 3343.34 1217.38 3339.06 1214.45 3333.91C1211.52 3328.69 1210.05 3322.6 1210.05 3315.62H1234.31C1234.31 3319.67 1234.95 3323.12 1236.24 3326C1237.59 3328.81 1239.46 3331.12 1241.87 3332.94C1244.33 3334.7 1247.2 3335.99 1250.48 3336.81C1253.76 3337.63 1257.31 3338.04 1261.12 3338.04C1266.04 3338.04 1270.08 3337.36 1273.24 3336.02C1276.47 3334.61 1278.87 3332.68 1280.45 3330.21C1282.09 3327.75 1282.91 3324.94 1282.91 3321.78ZM1366.76 3356.76C1359.55 3356.76 1353.08 3355.59 1347.34 3353.24C1341.59 3350.9 1336.7 3347.65 1332.66 3343.49C1328.67 3339.27 1325.6 3334.38 1323.43 3328.81C1321.32 3323.18 1320.27 3317.15 1320.27 3310.7V3307.19C1320.27 3299.86 1321.32 3293.21 1323.43 3287.24C1325.54 3281.2 1328.53 3276.02 1332.39 3271.68C1336.26 3267.34 1340.89 3264 1346.28 3261.66C1351.67 3259.32 1357.62 3258.14 1364.12 3258.14C1370.86 3258.14 1376.81 3259.29 1381.96 3261.57C1387.12 3263.8 1391.43 3266.96 1394.88 3271.06C1398.34 3275.17 1400.95 3280.09 1402.71 3285.83C1404.46 3291.51 1405.34 3297.81 1405.34 3304.73V3314.48H1330.81V3298.49H1382.49V3296.73C1382.38 3293.04 1381.67 3289.67 1380.38 3286.62C1379.09 3283.52 1377.1 3281.05 1374.41 3279.24C1371.71 3277.36 1368.22 3276.43 1363.95 3276.43C1360.49 3276.43 1357.47 3277.19 1354.89 3278.71C1352.38 3280.18 1350.27 3282.29 1348.57 3285.04C1346.93 3287.73 1345.7 3290.96 1344.88 3294.71C1344.05 3298.46 1343.64 3302.62 1343.64 3307.19V3310.7C1343.64 3314.69 1344.17 3318.38 1345.23 3321.78C1346.34 3325.18 1347.95 3328.13 1350.06 3330.65C1352.23 3333.12 1354.81 3335.05 1357.79 3336.46C1360.84 3337.8 1364.3 3338.48 1368.17 3338.48C1373.03 3338.48 1377.42 3337.54 1381.35 3335.66C1385.33 3333.73 1388.79 3330.89 1391.72 3327.14L1403.41 3339.27C1401.42 3342.2 1398.72 3345.01 1395.32 3347.71C1391.98 3350.4 1387.94 3352.6 1383.2 3354.3C1378.45 3355.94 1372.97 3356.76 1366.76 3356.76ZM1473.28 3334.79V3290.93C1473.28 3287.71 1472.73 3284.92 1471.61 3282.58C1470.5 3280.23 1468.8 3278.42 1466.52 3277.13C1464.23 3275.84 1461.33 3275.2 1457.81 3275.2C1454.71 3275.2 1451.98 3275.72 1449.64 3276.78C1447.36 3277.83 1445.6 3279.33 1444.37 3281.26C1443.14 3283.13 1442.52 3285.3 1442.52 3287.76H1419.23C1419.23 3283.84 1420.17 3280.12 1422.04 3276.6C1423.92 3273.03 1426.58 3269.86 1430.04 3267.11C1433.56 3264.3 1437.75 3262.1 1442.61 3260.52C1447.53 3258.94 1453.04 3258.14 1459.13 3258.14C1466.34 3258.14 1472.76 3259.38 1478.38 3261.84C1484.06 3264.24 1488.52 3267.87 1491.74 3272.73C1495.02 3277.6 1496.66 3283.72 1496.66 3291.1V3332.59C1496.66 3337.33 1496.96 3341.41 1497.54 3344.8C1498.19 3348.14 1499.12 3351.04 1500.35 3353.51V3355H1476.71C1475.6 3352.6 1474.75 3349.55 1474.16 3345.86C1473.58 3342.11 1473.28 3338.42 1473.28 3334.79ZM1476.54 3297.08L1476.71 3310.88H1462.03C1458.4 3310.88 1455.21 3311.26 1452.45 3312.02C1449.7 3312.72 1447.44 3313.78 1445.69 3315.19C1443.93 3316.53 1442.61 3318.17 1441.73 3320.11C1440.85 3321.98 1440.41 3324.12 1440.41 3326.52C1440.41 3328.87 1440.94 3330.98 1441.99 3332.85C1443.11 3334.73 1444.69 3336.22 1446.74 3337.33C1448.85 3338.39 1451.31 3338.92 1454.12 3338.92C1458.22 3338.92 1461.8 3338.1 1464.85 3336.46C1467.89 3334.76 1470.27 3332.71 1471.96 3330.3C1473.66 3327.9 1474.57 3325.62 1474.69 3323.45L1481.37 3333.47C1480.55 3335.87 1479.32 3338.42 1477.68 3341.11C1476.04 3343.81 1473.93 3346.33 1471.35 3348.67C1468.77 3351.02 1465.67 3352.95 1462.03 3354.47C1458.4 3356 1454.18 3356.76 1449.38 3356.76C1443.22 3356.76 1437.72 3355.53 1432.85 3353.07C1427.99 3350.61 1424.15 3347.24 1421.34 3342.96C1418.53 3338.68 1417.12 3333.82 1417.12 3328.37C1417.12 3323.33 1418.06 3318.88 1419.93 3315.01C1421.81 3311.14 1424.59 3307.89 1428.28 3305.25C1431.97 3302.56 1436.54 3300.54 1441.99 3299.19C1447.5 3297.78 1453.8 3297.08 1460.89 3297.08H1476.54ZM1540.78 3279.33V3355H1517.58V3259.9H1539.55L1540.78 3279.33ZM1569.7 3259.29L1569.35 3280.91C1568.06 3280.67 1566.59 3280.5 1564.95 3280.38C1563.37 3280.26 1561.88 3280.21 1560.47 3280.21C1556.9 3280.21 1553.76 3280.7 1551.07 3281.7C1548.37 3282.64 1546.12 3284.01 1544.3 3285.83C1542.54 3287.65 1541.19 3289.87 1540.26 3292.51C1539.32 3295.09 1538.79 3298.02 1538.67 3301.3L1533.66 3300.68C1533.66 3294.65 1534.28 3289.05 1535.51 3283.9C1536.74 3278.74 1538.53 3274.23 1540.87 3270.36C1543.21 3266.49 1546.14 3263.51 1549.66 3261.4C1553.23 3259.23 1557.34 3258.14 1561.96 3258.14C1563.25 3258.14 1564.63 3258.26 1566.1 3258.5C1567.62 3258.67 1568.82 3258.94 1569.7 3259.29ZM1619.71 3338.48C1622.99 3338.48 1625.92 3337.83 1628.5 3336.54C1631.08 3335.25 1633.13 3333.44 1634.65 3331.09C1636.23 3328.75 1637.08 3326.03 1637.2 3322.92H1659.08C1658.97 3329.37 1657.15 3335.14 1653.63 3340.23C1650.12 3345.33 1645.43 3349.38 1639.57 3352.36C1633.77 3355.29 1627.27 3356.76 1620.06 3356.76C1612.74 3356.76 1606.35 3355.53 1600.9 3353.07C1595.45 3350.61 1590.91 3347.18 1587.28 3342.78C1583.7 3338.39 1581.01 3333.29 1579.19 3327.49C1577.43 3321.69 1576.55 3315.48 1576.55 3308.86V3306.04C1576.55 3299.42 1577.43 3293.21 1579.19 3287.41C1581.01 3281.61 1583.7 3276.51 1587.28 3272.12C1590.91 3267.72 1595.45 3264.3 1600.9 3261.84C1606.35 3259.38 1612.71 3258.14 1619.97 3258.14C1627.65 3258.14 1634.39 3259.64 1640.19 3262.63C1646.05 3265.62 1650.62 3269.83 1653.9 3275.28C1657.24 3280.73 1658.97 3287.15 1659.08 3294.53H1637.2C1637.08 3291.13 1636.32 3288.09 1634.91 3285.39C1633.51 3282.7 1631.52 3280.53 1628.94 3278.89C1626.36 3277.25 1623.22 3276.43 1619.53 3276.43C1615.61 3276.43 1612.33 3277.25 1609.69 3278.89C1607.11 3280.53 1605.09 3282.78 1603.62 3285.65C1602.22 3288.47 1601.22 3291.63 1600.64 3295.15C1600.11 3298.6 1599.85 3302.24 1599.85 3306.04V3308.86C1599.85 3312.72 1600.11 3316.42 1600.64 3319.93C1601.22 3323.45 1602.22 3326.61 1603.62 3329.42C1605.09 3332.18 1607.11 3334.38 1609.69 3336.02C1612.33 3337.66 1615.67 3338.48 1619.71 3338.48ZM1697.32 3220V3355H1674.03V3220H1697.32ZM1693.62 3304.02H1686.77C1686.77 3297.4 1687.65 3291.31 1689.41 3285.74C1691.16 3280.18 1693.65 3275.34 1696.88 3271.24C1700.1 3267.08 1703.94 3263.86 1708.39 3261.57C1712.9 3259.29 1717.88 3258.14 1723.33 3258.14C1728.02 3258.14 1732.27 3258.82 1736.08 3260.17C1739.94 3261.46 1743.25 3263.54 1746.01 3266.41C1748.76 3269.28 1750.87 3273.03 1752.34 3277.66C1753.86 3282.23 1754.62 3287.79 1754.62 3294.36V3355H1731.24V3294.18C1731.24 3289.79 1730.6 3286.33 1729.31 3283.81C1728.02 3281.23 1726.17 3279.38 1723.77 3278.27C1721.43 3277.16 1718.53 3276.6 1715.07 3276.6C1711.32 3276.6 1708.1 3277.33 1705.4 3278.8C1702.71 3280.21 1700.48 3282.17 1698.72 3284.69C1697.02 3287.21 1695.73 3290.11 1694.86 3293.39C1694.04 3296.67 1693.62 3300.21 1693.62 3304.02ZM1902.89 3336.02V3355H1838.56V3336.02H1902.89ZM1845.85 3227.03V3355H1821.68V3227.03H1845.85ZM1913.18 3308.42V3306.57C1913.18 3299.6 1914.17 3293.18 1916.16 3287.32C1918.16 3281.41 1921.06 3276.28 1924.87 3271.94C1928.67 3267.61 1933.33 3264.24 1938.84 3261.84C1944.35 3259.38 1950.62 3258.14 1957.65 3258.14C1964.8 3258.14 1971.12 3259.38 1976.63 3261.84C1982.2 3264.24 1986.89 3267.61 1990.7 3271.94C1994.5 3276.28 1997.4 3281.41 1999.4 3287.32C2001.39 3293.18 2002.38 3299.6 2002.38 3306.57V3308.42C2002.38 3315.33 2001.39 3321.75 1999.4 3327.67C1997.4 3333.53 1994.5 3338.65 1990.7 3343.05C1986.89 3347.38 1982.23 3350.75 1976.72 3353.15C1971.21 3355.56 1964.91 3356.76 1957.82 3356.76C1950.79 3356.76 1944.49 3355.56 1938.93 3353.15C1933.36 3350.75 1928.67 3347.38 1924.87 3343.05C1921.06 3338.65 1918.16 3333.53 1916.16 3327.67C1914.17 3321.75 1913.18 3315.33 1913.18 3308.42ZM1936.38 3306.57V3308.42C1936.38 3312.58 1936.79 3316.47 1937.61 3320.11C1938.43 3323.74 1939.69 3326.93 1941.39 3329.69C1943.09 3332.44 1945.29 3334.61 1947.98 3336.19C1950.73 3337.71 1954.02 3338.48 1957.82 3338.48C1961.57 3338.48 1964.8 3337.71 1967.49 3336.19C1970.19 3334.61 1972.38 3332.44 1974.08 3329.69C1975.84 3326.93 1977.13 3323.74 1977.95 3320.11C1978.77 3316.47 1979.18 3312.58 1979.18 3308.42V3306.57C1979.18 3302.47 1978.77 3298.63 1977.95 3295.06C1977.13 3291.43 1975.84 3288.23 1974.08 3285.48C1972.38 3282.67 1970.16 3280.47 1967.4 3278.89C1964.71 3277.25 1961.46 3276.43 1957.65 3276.43C1953.9 3276.43 1950.68 3277.25 1947.98 3278.89C1945.29 3280.47 1943.09 3282.67 1941.39 3285.48C1939.69 3288.23 1938.43 3291.43 1937.61 3295.06C1936.79 3298.63 1936.38 3302.47 1936.38 3306.57ZM2071.64 3334.79V3290.93C2071.64 3287.71 2071.09 3284.92 2069.97 3282.58C2068.86 3280.23 2067.16 3278.42 2064.88 3277.13C2062.59 3275.84 2059.69 3275.2 2056.17 3275.2C2053.07 3275.2 2050.34 3275.72 2048 3276.78C2045.71 3277.83 2043.96 3279.33 2042.73 3281.26C2041.5 3283.13 2040.88 3285.3 2040.88 3287.76H2017.59C2017.59 3283.84 2018.53 3280.12 2020.4 3276.6C2022.28 3273.03 2024.94 3269.86 2028.4 3267.11C2031.92 3264.3 2036.11 3262.1 2040.97 3260.52C2045.89 3258.94 2051.4 3258.14 2057.49 3258.14C2064.7 3258.14 2071.12 3259.38 2076.74 3261.84C2082.42 3264.24 2086.88 3267.87 2090.1 3272.73C2093.38 3277.6 2095.02 3283.72 2095.02 3291.1V3332.59C2095.02 3337.33 2095.31 3341.41 2095.9 3344.8C2096.54 3348.14 2097.48 3351.04 2098.71 3353.51V3355H2075.07C2073.96 3352.6 2073.11 3349.55 2072.52 3345.86C2071.94 3342.11 2071.64 3338.42 2071.64 3334.79ZM2074.89 3297.08L2075.07 3310.88H2060.39C2056.76 3310.88 2053.57 3311.26 2050.81 3312.02C2048.06 3312.72 2045.8 3313.78 2044.04 3315.19C2042.29 3316.53 2040.97 3318.17 2040.09 3320.11C2039.21 3321.98 2038.77 3324.12 2038.77 3326.52C2038.77 3328.87 2039.3 3330.98 2040.35 3332.85C2041.47 3334.73 2043.05 3336.22 2045.1 3337.33C2047.21 3338.39 2049.67 3338.92 2052.48 3338.92C2056.58 3338.92 2060.16 3338.1 2063.21 3336.46C2066.25 3334.76 2068.62 3332.71 2070.32 3330.3C2072.02 3327.9 2072.93 3325.62 2073.05 3323.45L2079.73 3333.47C2078.91 3335.87 2077.68 3338.42 2076.04 3341.11C2074.4 3343.81 2072.29 3346.33 2069.71 3348.67C2067.13 3351.02 2064.03 3352.95 2060.39 3354.47C2056.76 3356 2052.54 3356.76 2047.74 3356.76C2041.58 3356.76 2036.08 3355.53 2031.21 3353.07C2026.35 3350.61 2022.51 3347.24 2019.7 3342.96C2016.89 3338.68 2015.48 3333.82 2015.48 3328.37C2015.48 3323.33 2016.42 3318.88 2018.29 3315.01C2020.17 3311.14 2022.95 3307.89 2026.64 3305.25C2030.33 3302.56 2034.9 3300.54 2040.35 3299.19C2045.86 3297.78 2052.16 3297.08 2059.25 3297.08H2074.89ZM2172.98 3334.79V3220H2196.36V3355H2175.27L2172.98 3334.79ZM2111.9 3308.59V3306.75C2111.9 3299.48 2112.72 3292.89 2114.36 3286.97C2116.06 3281 2118.52 3275.87 2121.74 3271.59C2124.96 3267.31 2128.86 3264 2133.43 3261.66C2138.06 3259.32 2143.3 3258.14 2149.16 3258.14C2154.85 3258.14 2159.8 3259.29 2164.02 3261.57C2168.29 3263.86 2171.93 3267.11 2174.91 3271.33C2177.96 3275.55 2180.39 3280.56 2182.21 3286.36C2184.03 3292.1 2185.34 3298.43 2186.16 3305.34V3310.35C2185.34 3317.09 2184.03 3323.27 2182.21 3328.9C2180.39 3334.52 2177.96 3339.44 2174.91 3343.66C2171.93 3347.82 2168.29 3351.04 2164.02 3353.33C2159.74 3355.62 2154.73 3356.76 2148.99 3356.76C2143.19 3356.76 2137.97 3355.56 2133.34 3353.15C2128.77 3350.75 2124.88 3347.38 2121.65 3343.05C2118.49 3338.71 2116.06 3333.61 2114.36 3327.75C2112.72 3321.89 2111.9 3315.51 2111.9 3308.59ZM2135.19 3306.75V3308.59C2135.19 3312.7 2135.54 3316.53 2136.24 3320.11C2136.95 3323.68 2138.09 3326.85 2139.67 3329.6C2141.25 3332.29 2143.27 3334.4 2145.73 3335.93C2148.25 3337.45 2151.3 3338.21 2154.88 3338.21C2159.45 3338.21 2163.2 3337.22 2166.12 3335.22C2169.11 3333.17 2171.43 3330.39 2173.07 3326.88C2174.71 3323.3 2175.76 3319.29 2176.23 3314.83V3301.04C2176 3297.52 2175.38 3294.27 2174.39 3291.28C2173.45 3288.29 2172.1 3285.71 2170.34 3283.54C2168.64 3281.38 2166.54 3279.68 2164.02 3278.45C2161.5 3277.22 2158.51 3276.6 2155.05 3276.6C2151.48 3276.6 2148.43 3277.39 2145.91 3278.97C2143.39 3280.5 2141.34 3282.64 2139.76 3285.39C2138.18 3288.14 2137 3291.34 2136.24 3294.97C2135.54 3298.6 2135.19 3302.53 2135.19 3306.75ZM2314.48 3227.03V3355H2290.4V3227.03H2314.48ZM2354.21 3227.03V3246.1H2251.12V3227.03H2354.21ZM2402.99 3356.76C2395.78 3356.76 2389.31 3355.59 2383.57 3353.24C2377.82 3350.9 2372.93 3347.65 2368.89 3343.49C2364.9 3339.27 2361.83 3334.38 2359.66 3328.81C2357.55 3323.18 2356.5 3317.15 2356.5 3310.7V3307.19C2356.5 3299.86 2357.55 3293.21 2359.66 3287.24C2361.77 3281.2 2364.76 3276.02 2368.62 3271.68C2372.49 3267.34 2377.12 3264 2382.51 3261.66C2387.9 3259.32 2393.85 3258.14 2400.35 3258.14C2407.09 3258.14 2413.04 3259.29 2418.2 3261.57C2423.35 3263.8 2427.66 3266.96 2431.12 3271.06C2434.57 3275.17 2437.18 3280.09 2438.94 3285.83C2440.7 3291.51 2441.57 3297.81 2441.57 3304.73V3314.48H2367.04V3298.49H2418.72V3296.73C2418.61 3293.04 2417.9 3289.67 2416.61 3286.62C2415.32 3283.52 2413.33 3281.05 2410.64 3279.24C2407.94 3277.36 2404.46 3276.43 2400.18 3276.43C2396.72 3276.43 2393.7 3277.19 2391.12 3278.71C2388.61 3280.18 2386.5 3282.29 2384.8 3285.04C2383.16 3287.73 2381.93 3290.96 2381.11 3294.71C2380.29 3298.46 2379.88 3302.62 2379.88 3307.19V3310.7C2379.88 3314.69 2380.4 3318.38 2381.46 3321.78C2382.57 3325.18 2384.18 3328.13 2386.29 3330.65C2388.46 3333.12 2391.04 3335.05 2394.03 3336.46C2397.07 3337.8 2400.53 3338.48 2404.4 3338.48C2409.26 3338.48 2413.65 3337.54 2417.58 3335.66C2421.56 3333.73 2425.02 3330.89 2427.95 3327.14L2439.64 3339.27C2437.65 3342.2 2434.95 3345.01 2431.55 3347.71C2428.21 3350.4 2424.17 3352.6 2419.43 3354.3C2414.68 3355.94 2409.2 3356.76 2402.99 3356.76ZM2509.43 3328.98C2509.43 3326.99 2508.9 3325.21 2507.84 3323.62C2506.79 3322.04 2504.8 3320.61 2501.87 3319.32C2499 3317.97 2494.78 3316.71 2489.21 3315.54C2484.29 3314.48 2479.75 3313.16 2475.59 3311.58C2471.43 3310 2467.85 3308.1 2464.87 3305.87C2461.88 3303.58 2459.53 3300.92 2457.83 3297.87C2456.19 3294.77 2455.37 3291.19 2455.37 3287.15C2455.37 3283.22 2456.22 3279.53 2457.92 3276.07C2459.62 3272.56 2462.08 3269.48 2465.3 3266.85C2468.53 3264.15 2472.45 3262.04 2477.08 3260.52C2481.71 3258.94 2486.93 3258.14 2492.73 3258.14C2500.81 3258.14 2507.76 3259.46 2513.56 3262.1C2519.42 3264.74 2523.9 3268.37 2527 3273C2530.11 3277.57 2531.66 3282.72 2531.66 3288.47H2508.46C2508.46 3285.95 2507.87 3283.66 2506.7 3281.61C2505.59 3279.56 2503.86 3277.92 2501.52 3276.69C2499.17 3275.4 2496.21 3274.76 2492.64 3274.76C2489.42 3274.76 2486.69 3275.28 2484.46 3276.34C2482.3 3277.39 2480.66 3278.77 2479.54 3280.47C2478.43 3282.17 2477.87 3284.04 2477.87 3286.09C2477.87 3287.62 2478.17 3288.99 2478.75 3290.22C2479.4 3291.4 2480.42 3292.48 2481.83 3293.48C2483.23 3294.47 2485.14 3295.38 2487.54 3296.2C2490 3297.02 2493.02 3297.81 2496.59 3298.57C2503.68 3299.98 2509.87 3301.86 2515.14 3304.2C2520.47 3306.48 2524.63 3309.53 2527.62 3313.34C2530.61 3317.15 2532.1 3322.01 2532.1 3327.93C2532.1 3332.15 2531.19 3336.02 2529.38 3339.53C2527.56 3342.99 2524.92 3346.01 2521.47 3348.58C2518.01 3351.16 2513.88 3353.18 2509.07 3354.65C2504.27 3356.05 2498.85 3356.76 2492.81 3356.76C2484.08 3356.76 2476.7 3355.21 2470.67 3352.1C2464.63 3348.94 2460.06 3344.95 2456.96 3340.15C2453.85 3335.28 2452.3 3330.24 2452.3 3325.03H2474.53C2474.71 3328.72 2475.71 3331.68 2477.52 3333.91C2479.34 3336.13 2481.62 3337.74 2484.38 3338.74C2487.19 3339.68 2490.15 3340.15 2493.25 3340.15C2496.77 3340.15 2499.73 3339.68 2502.13 3338.74C2504.53 3337.74 2506.35 3336.43 2507.58 3334.79C2508.81 3333.09 2509.43 3331.15 2509.43 3328.98ZM2594.77 3259.9V3276.6H2540.28V3259.9H2594.77ZM2554.87 3236.52H2578.16V3327.58C2578.16 3330.39 2578.54 3332.56 2579.3 3334.08C2580.06 3335.61 2581.2 3336.63 2582.73 3337.16C2584.25 3337.69 2586.07 3337.95 2588.18 3337.95C2589.7 3337.95 2591.11 3337.86 2592.39 3337.69C2593.68 3337.51 2594.77 3337.33 2595.65 3337.16L2595.73 3354.56C2593.8 3355.21 2591.6 3355.73 2589.14 3356.14C2586.74 3356.55 2584.02 3356.76 2580.97 3356.76C2575.75 3356.76 2571.18 3355.88 2567.26 3354.12C2563.33 3352.3 2560.29 3349.4 2558.12 3345.42C2555.95 3341.38 2554.87 3336.04 2554.87 3329.42V3236.52ZM2652.95 3356.76C2645.74 3356.76 2639.27 3355.59 2633.53 3353.24C2627.79 3350.9 2622.89 3347.65 2618.85 3343.49C2614.87 3339.27 2611.79 3334.38 2609.62 3328.81C2607.51 3323.18 2606.46 3317.15 2606.46 3310.7V3307.19C2606.46 3299.86 2607.51 3293.21 2609.62 3287.24C2611.73 3281.2 2614.72 3276.02 2618.59 3271.68C2622.45 3267.34 2627.08 3264 2632.47 3261.66C2637.86 3259.32 2643.81 3258.14 2650.31 3258.14C2657.05 3258.14 2663 3259.29 2668.16 3261.57C2673.31 3263.8 2677.62 3266.96 2681.08 3271.06C2684.53 3275.17 2687.14 3280.09 2688.9 3285.83C2690.66 3291.51 2691.54 3297.81 2691.54 3304.73V3314.48H2617V3298.49H2668.68V3296.73C2668.57 3293.04 2667.86 3289.67 2666.57 3286.62C2665.29 3283.52 2663.29 3281.05 2660.6 3279.24C2657.9 3277.36 2654.42 3276.43 2650.14 3276.43C2646.68 3276.43 2643.66 3277.19 2641.09 3278.71C2638.57 3280.18 2636.46 3282.29 2634.76 3285.04C2633.12 3287.73 2631.89 3290.96 2631.07 3294.71C2630.25 3298.46 2629.84 3302.62 2629.84 3307.19V3310.7C2629.84 3314.69 2630.36 3318.38 2631.42 3321.78C2632.53 3325.18 2634.14 3328.13 2636.25 3330.65C2638.42 3333.12 2641 3335.05 2643.99 3336.46C2647.03 3337.8 2650.49 3338.48 2654.36 3338.48C2659.22 3338.48 2663.62 3337.54 2667.54 3335.66C2671.53 3333.73 2674.98 3330.89 2677.91 3327.14L2689.6 3339.27C2687.61 3342.2 2684.91 3345.01 2681.52 3347.71C2678.18 3350.4 2674.13 3352.6 2669.39 3354.3C2664.64 3355.94 2659.16 3356.76 2652.95 3356.76ZM2730.29 3279.33V3355H2707.09V3259.9H2729.06L2730.29 3279.33ZM2759.21 3259.29L2758.86 3280.91C2757.57 3280.67 2756.11 3280.5 2754.46 3280.38C2752.88 3280.26 2751.39 3280.21 2749.98 3280.21C2746.41 3280.21 2743.27 3280.7 2740.58 3281.7C2737.88 3282.64 2735.63 3284.01 2733.81 3285.83C2732.05 3287.65 2730.71 3289.87 2729.77 3292.51C2728.83 3295.09 2728.3 3298.02 2728.19 3301.3L2723.18 3300.68C2723.18 3294.65 2723.79 3289.05 2725.02 3283.9C2726.25 3278.74 2728.04 3274.23 2730.38 3270.36C2732.73 3266.49 2735.66 3263.51 2739.17 3261.4C2742.75 3259.23 2746.85 3258.14 2751.48 3258.14C2752.77 3258.14 2754.14 3258.26 2755.61 3258.5C2757.13 3258.67 2758.33 3258.94 2759.21 3259.29Z" fill="#97C6AD"/>
</svg>
